# AST/ASF file generated using VICON BodyLanguage
# -----------------------------------------------
:version 1.10
:name VICON
:units
  mass 1.0
  length 0.45
  angle deg
:documentation
   .ast/.asf automatically generated from VICON data using
   VICON BodyBuilder and BodyLanguage model FoxedUp or BRILLIANT.MOD
:root
   order TX TY TZ RX RY RZ
   axis XYZ
   position 0 0 0  
   orientation 0 0 0 
:bonedata
  begin
     id 1 
     name lhipjoint
     direction 0.650112 -0.723553 0.232005 
     length 2.45805 
     axis 0 0 0  XYZ
  end
  begin
     id 2 
     name lfemur
     direction 0.34202 -0.939693 0  
     length 7.00073  
     axis 0 0 20  XYZ
    dof rx ry rz
    limits (-160.0 20.0)
           (-70.0 70.0)
           (-60.0 70.0)
  end
  begin
     id 3 
     name ltibia
     direction 0.34202 -0.939693 0   
     length 7.8748   
     axis 0 0 20   XYZ
    dof rx
    limits (-10.0 170.0)
  end
  begin
     id 4 
     name lfoot
     direction 0.0542825 -0.14914 0.987325   
     length 1.75978   
     axis -90 7.62852e-016 20   XYZ
    dof rx rz
    limits (-45.0 90.0)
           (-70.0 20.0)
  end
  begin
     id 5 
     name ltoes
     direction 1.53509e-011 -4.21906e-011 1   
     length 0.893912   
     axis -90 7.62852e-016 20   XYZ
    dof rx
    limits (-90.0 20.0)
  end
  begin
     id 6 
     name rhipjoint
     direction -0.637897 -0.733345 0.235145   
     length 2.42522  
     axis 0 0 0  XYZ 
  end
  begin
     id 7 
     name rfemur
     direction -0.34202 -0.939693 0   
     length 7.02549   
     axis 0 0 -20   XYZ
    dof rx ry rz
    limits (-160.0 20.0)
           (-70.0 70.0)
           (-70.0 60.0)
  end
  begin
     id 8 
     name rtibia
     direction -0.34202 -0.939693 0   
     length 7.71512   
     axis 0 0 -20   XYZ
    dof rx
    limits (-10.0 170.0)
 end
 begin
     id 9 
     name rfoot
     direction -0.0822618 -0.226012 0.970645   
     length 1.90014  
     axis -90 -7.62852e-016 -20   XYZ
    dof rx rz
    limits (-45.0 90.0)
           (-20.0 70.0)
  end
  begin
     id 10 
     name rtoes
     direction -1.53542e-011 -4.21872e-011 1   
     length 0.957341   
     axis -90 -7.62852e-016 -20   XYZ
    dof rx
    limits (-90.0 20.0)
  end
  begin
     id 11 
     name lowerback
     direction -0.0022947 0.999774 -0.0211557   
     length 1.89909   
     axis 0 0 0   XYZ
    dof rx ry rz
    limits (-20.0 45.0)
           (-30.0 30.0)
           (-30.0 30.0)
  end
  begin
     id 12 
     name upperback
     direction 0.0107737 0.998635 0.0511027   
     length 1.8853   
     axis 0 0 0   XYZ
    dof rx ry rz
    limits (-20.0 45.0)
           (-30.0 30.0)
           (-30.0 30.0)
  end
  begin
     id 13 
     name thorax
     direction 0.011824 0.998136 0.0598754   
     length 1.88911   
     axis 0 0 0   XYZ
    dof rx ry rz
    limits (-20.0 45.0)
           (-30.0 30.0)
           (-30.0 30.0)
  end
  begin
     id 14 
     name lowerneck
     direction -0.0685355 0.990319 0.120714   
     length 1.91222   
     axis 0 0 0   XYZ
    dof rx ry rz
    limits (-20.0 45.0)
           (-30.0 30.0)
           (-30.0 30.0)
  end
  begin
     id 15 
     name upperneck
     direction 0.0886204 0.955665 -0.280805   
     length 1.92526   
     axis 0 0 0   XYZ
    dof rx ry rz
    limits (-20.0 45.0)
           (-30.0 30.0)
           (-30.0 30.0)
  end
  begin
     id 16
     name head
     direction 0.0233423 0.993502 -0.111393  
     length 1.96056  
     axis 0 0 0   XYZ
    dof rx ry rz
    limits (-20.0 45.0)
           (-30.0 30.0)
           (-30.0 30.0)
  end
  begin
     id 17 
     name lclavicle
     direction 0.941873 0.32922 0.0670041  
     length 3.31705  
     axis 0 0 0   XYZ
    dof ry rz
    limits (-20.0 10.0)
           (0.0 20.0)
  end
  begin
     id 18 
     name lhumerus
     direction 1 -4.4898e-011 3.38707e-028   
     length 5.29277   
     axis 180 -30 -90   XYZ
    dof rx ry rz
    limits (-60.0 90.0)
           (-90.0 90.0)
           (-90.0 90.0)
  end
  begin
     id 19
     name lradius
     direction 1 -4.48952e-011 1.63213e-028   
     length 2.85226   
     axis 180 -30 -90   XYZ
    dof rx
    limits (-10.0 170.0)
  end
  begin
     id 20
     name lwrist
     direction 1 -4.49001e-011 1.27856e-027   
     length 1.42613   
     axis -1.61767e-015 90 90   XYZ
    dof ry
    limits (-180.0 0.0)
 end
  begin
     id 21 
     name lhand
     direction 1 -4.48976e-011 2.55931e-027   
     length 0.602097   
     axis -1.63363e-015 90 90   XYZ
    dof rx rz
    limits (-90.0 90.0)
           (-45.0 45.0)
  end
  begin
     id 22 
     name lfingers
     direction 1 -4.48986e-011 5.11684e-027   
     length 0.485426   
     axis -3.26723e-015 90 90   XYZ
    dof rx
    limits (0.0 90.0)
  end
  begin
     id 23
     name lthumb
     direction 0.707107 -6.34915e-011 0.707107   
     length 0.696978   
     axis -90 45 -2.25915e-014   XYZ
    dof rx rz
    limits (-45.0 45.0)
           (-45.0 45.0)
  end
  begin
     id 24 
     name rclavicle
     direction -0.939974 0.327078 0.0973096   
     length 3.10337  
     axis 0 0 0   XYZ 
    dof ry rz
    limits (-10.0 20.0)
           (-20.0 0.0)
  end
  begin
     id 25 
     name rhumerus
     direction -1 -4.48975e-011 1.83745e-027  
     length 5.13304   
     axis 180 30 90   XYZ
    dof rx ry rz
    limits (-90.0 60.0)
           (-90.0 90.0)
           (-90.0 90.0)
  end
  begin
     id 26 
     name rradius
     direction -1 -4.48977e-011 7.1775e-029   
     length 2.74305   
     axis 180 30 90   XYZ
    dof rx
    limits (-10.0 170.0)
  end
  begin
     id 27 
     name rwrist
     direction -1 -4.48977e-011 1.27963e-027   
     length 1.37152   
     axis -1.61767e-015 -90 -90   XYZ
    dof ry
    limits (-180.0 0.0)
  end
  begin
     id 28
     name rhand
     direction -1 -4.4888e-011 2.56782e-027   
     length 0.767976   
     axis -1.63363e-015 -90 -90   XYZ
    dof rx rz
    limits (-90.0 90.0)
           (-45.0 45.0)
  end
  begin
     id 29
     name rfingers
     direction -1 -4.48947e-011 5.12384e-027   
     length 0.619162   
     axis -3.26723e-015 -90 -90   XYZ
    dof rx
    limits (0.0 90.0)
  end
  begin
     id 30
     name rthumb
     direction -0.707107 -6.34857e-011 0.707107   
     length 0.888997   
     axis -90 -45 2.25915e-014   XYZ
    dof rx rz
    limits (-45.0 45.0)
           (-45.0 45.0)
  end
:hierarchy
  begin
    root lhipjoint rhipjoint lowerback
    lhipjoint lfemur
    lfemur ltibia
    ltibia lfoot
    lfoot ltoes
    rhipjoint rfemur
    rfemur rtibia
    rtibia rfoot
    rfoot rtoes
    lowerback upperback
    upperback thorax
    thorax lowerneck lclavicle rclavicle
    lowerneck upperneck
    upperneck head
    lclavicle lhumerus
    lhumerus lradius
    lradius lwrist
    lwrist lhand lthumb
    lhand lfingers
    rclavicle rhumerus
    rhumerus rradius
    rradius rwrist
    rwrist rhand rthumb
    rhand rfingers
  end

#!OML:ASF F:\VICON\USERDATA\INSTALL\rory3\rory3.ASF
:FULLY-SPECIFIED
:DEGREES
737
root 0.246553 16.419 -0.0494845 -1.03066 38.9158 -0.93945
lowerback -2.12128 5.36253 1.97628
upperback -5.14825 7.25459 0.97552
thorax -4.01581 3.58852 -0.186943
lowerneck -5.63485 -11.6542 -16.6727
upperneck 22.244 -18.2997 18.5098
head 11.5146 -8.15262 7.11269
rclavicle -3.51849e-014 -1.59028e-015
rhumerus -11.5361 24.3498 -103.545
rradius 121.055
rwrist 37.0716
rhand 47.1417 8.35369
rfingers 7.12502
rthumb 67.9788 7.07782
lclavicle -3.51849e-014 -1.59028e-015
lhumerus -15.8376 -5.17357 93.0761
lradius 128.941
lwrist -17.137
lhand 34.201 45.1986
lfingers 7.12502
lthumb 57.439 61.4129
rfemur -7.68286 -22.7371 19.2673
rtibia 41.3578
rfoot -30.7793 -18.9128
rtoes -11.1084
lfemur -23.3506 -28.8459 -16.8614
ltibia 45.636
lfoot -21.5354 -12.1647
ltoes -9.60355
738
root 0.248696 16.4196 -0.0560793 -0.867452 38.3092 -0.804138
lowerback -1.98447 5.39839 1.92585
upperback -5.25795 7.30918 0.934543
thorax -4.20779 3.61395 -0.22322
lowerneck -5.54771 -11.5883 -16.6141
upperneck 22.3076 -18.188 18.3332
head 11.468 -8.11794 7.06136
rclavicle -5.68524e-014 -6.75868e-015
rhumerus -11.4648 24.4275 -103.424
rradius 121.034
rwrist 36.7005
rhand 47.4357 8.41011
rfingers 7.12502
rthumb 68.1903 7.64161
lclavicle -5.68524e-014 -6.75868e-015
lhumerus -15.9821 -5.28906 93.1232
lradius 129.017
lwrist -17.2574
lhand 33.7947 45.3589
lfingers 7.12502
lthumb 57.0824 61.8761
rfemur -7.92115 -22.2269 19.2058
rtibia 41.4708
rfoot -30.7063 -18.8279
rtoes -11.0183
lfemur -23.27 -28.4327 -16.9654
ltibia 45.5236
lfoot -21.6009 -11.9981
ltoes -9.57738
739
root 0.248122 16.4237 -0.0587257 -0.75712 37.6029 -0.791128
lowerback -2.00352 5.45796 1.84701
upperback -5.27427 7.38905 0.967143
thorax -4.2275 3.6574 -0.14767
lowerneck -5.67344 -11.5474 -16.6271
upperneck 22.4143 -18.1047 18.2309
head 11.5046 -8.08233 7.03621
rclavicle 6.97734e-014 5.56597e-015
rhumerus -11.2343 24.6988 -103.091
rradius 120.965
rwrist 36.5127
rhand 47.2572 8.26763
rfingers 7.12502
rthumb 68.0621 7.18983
lclavicle 6.97734e-014 5.56597e-015
lhumerus -15.965 -5.25376 93.2417
lradius 129.122
lwrist -17.4161
lhand 33.9312 45.5733
lfingers 7.12502
lthumb 57.2023 61.9895
rfemur -8.17712 -21.5787 19.3048
rtibia 41.5146
rfoot -30.6268 -18.8076
rtoes -11.3598
lfemur -23.1815 -27.925 -16.9275
ltibia 45.3606
lfoot -21.6621 -11.8394
ltoes -9.62714
740
root 0.249283 16.4321 -0.0559272 -0.704289 36.8526 -0.689349
lowerback -2.0512 5.50244 1.62559
upperback -5.20949 7.44433 1.02102
thorax -4.16724 3.69541 0.0346291
lowerneck -5.8304 -11.477 -16.6292
upperneck 22.52 -17.9766 18.136
head 11.5372 -8.02343 7.01926
rclavicle 1.3582e-013 2.92213e-014
rhumerus -10.9604 25.0455 -102.754
rradius 120.928
rwrist 36.2809
rhand 47.2091 8.07037
rfingers 7.12502
rthumb 68.0274 6.90979
lclavicle 1.3582e-013 2.92213e-014
lhumerus -15.8026 -4.91528 93.303
lradius 129.292
lwrist -17.363
lhand 34.8965 45.3869
lfingers 7.12502
lthumb 58.0469 61.0661
rfemur -8.2418 -20.9002 19.2668
rtibia 41.4847
rfoot -30.5354 -18.7305
rtoes -11.0803
lfemur -22.8716 -27.4157 -17.0531
ltibia 45.1163
lfoot -21.7067 -11.6344
ltoes -9.52926
741
root 0.25592 16.4425 -0.0524569 -0.521139 36.1297 -0.29243
lowerback -2.13958 5.52902 1.23926
upperback -5.11083 7.47002 0.998863
thorax -4.05964 3.72327 0.235418
lowerneck -5.98654 -11.409 -16.6815
upperneck 22.6777 -17.8594 18.0649
head 11.6006 -7.97051 7.02053
rclavicle 3.29983e-014 2.38542e-015
rhumerus -10.7347 25.3243 -102.511
rradius 120.848
rwrist 36.209
rhand 47.1956 8.08135
rfingers 7.12502
rthumb 68.0177 6.89772
lclavicle 3.29983e-014 2.38542e-015
lhumerus -15.5991 -4.63592 93.4744
lradius 129.5
lwrist -17.5506
lhand 35.8118 45.3898
lfingers 7.12502
lthumb 58.8421 60.3308
rfemur -8.18226 -20.3964 18.8614
rtibia 41.3806
rfoot -30.4086 -18.5852
rtoes -10.8719
lfemur -22.4249 -26.9967 -17.5152
ltibia 44.7895
lfoot -21.714 -11.3716
ltoes -9.43641
742
root 0.262196 16.4543 -0.0518035 -0.265641 35.3895 0.13239
lowerback -2.25401 5.57631 0.885004
upperback -5.05789 7.52298 0.894625
thorax -3.97081 3.76116 0.335387
lowerneck -6.12573 -11.3603 -16.7055
upperneck 22.8849 -17.8031 18.0642
head 11.6989 -7.93573 7.03759
rclavicle 9.08943e-014 1.80894e-014
rhumerus -10.4724 25.4486 -102.271
rradius 120.715
rwrist 36.3311
rhand 47.2236 8.17071
rfingers 7.12502
rthumb 68.0378 7.03505
lclavicle 9.08943e-014 1.80894e-014
lhumerus -15.3513 -4.67943 93.6939
lradius 129.64
lwrist -17.964
lhand 36.1988 45.9052
lfingers 7.12502
lthumb 59.1766 60.5218
rfemur -8.14892 -19.9127 18.4364
rtibia 41.1955
rfoot -30.2544 -18.3989
rtoes -11.3388
lfemur -22.02 -26.5496 -17.977
ltibia 44.4033
lfoot -21.6322 -11.1515
ltoes -9.05099
743
root 0.264981 16.4685 -0.052065 -0.222132 34.6301 0.284457
lowerback -2.24367 5.58932 0.72082
upperback -5.06977 7.53837 0.859667
thorax -4.00537 3.77365 0.386091
lowerneck -6.10566 -11.247 -16.7879
upperneck 23.0447 -17.6741 18.1325
head 11.745 -7.87802 7.1127
rclavicle 5.02428e-014 8.94531e-015
rhumerus -10.3209 25.5775 -102.036
rradius 120.672
rwrist 36.3954
rhand 47.3082 8.14562
rfingers 7.12502
rthumb 68.0988 7.15576
lclavicle 5.02428e-014 8.94531e-015
lhumerus -15.1074 -4.80227 93.8659
lradius 129.679
lwrist -18.1591
lhand 35.7242 46.5756
lfingers 7.12502
lthumb 58.7663 61.589
rfemur -8.01727 -19.3741 18.2752
rtibia 40.9037
rfoot -30.0129 -18.3306
rtoes -12.1383
lfemur -21.5427 -26.0365 -18.1911
ltibia 43.9548
lfoot -21.59 -10.9995
ltoes -8.8723
